<?xml version="1.0" encoding="UTF-8" standalone="no"?>
<!-- Created with Inkscape (http://www.inkscape.org/) -->

<svg
   version="1.1"
   id="svg1"
   width="2742.7202"
   height="1109.28"
   viewBox="0 0 2742.7202 1109.28"
   xmlns="http://www.w3.org/2000/svg"
   xmlns:svg="http://www.w3.org/2000/svg">
  <defs
     id="defs1">
    <clipPath
       clipPathUnits="userSpaceOnUse"
       id="clipPath1">
      <path
         d="M 0,0 H 4516 V 3685 H 0 Z"
         transform="matrix(2.2147806e-4,0,0,2.7137337e-4,0,0)"
         id="path1" />
    </clipPath>
    <clipPath
       clipPathUnits="userSpaceOnUse"
       id="clipPath2">
      <path
         d="M 0,0 H 4515 V 3684 H 0 Z"
         transform="scale(1.3333333)"
         id="path2" />
    </clipPath>
  </defs>
  <g
     id="g1"
     transform="translate(-1708.8107,-2145.3801)">
    <g
       id="g2"
       clip-path="url(#clipPath2)">
      <path
         style="fill:#000000"
         d="m 1708.8197,2745.8601 h 48.0001 v -5.76 -5.76 h 90.24 v -12 -12 h 6.24 6.24 v -4.8 -4.8 h 17.76 17.76 v -23.04 -23.04 h 2.88 2.88 v 23.04 23.04 h 10.08 10.08 v -23.04 -23.04 h 2.88 2.88 v 23.04 23.04 h 10.56 10.56 v -23.04 -23.04 h 2.88 2.8799 v 23.04 23.04 h 43.6801 43.68 v 4.8 4.8 h 6.24 6.24 v 156.48 h 22.08 v -295.68 h 35.52 v -75.84 h 30.72 v -63.36 h 165.12 v 63.36 h 30.7199 v 75.84 h 35.52 v 295.68 h 52.8001 l -1e-4,-4.0224 c 0,-3.6728 -25.9145,-648.4042 -25.9011,-649.955 0.011,-1.2857 2.7016,2.9461 6.5469,10.2974 18.372,35.1227 41.2551,63.4921 69.7542,86.478 37.7309,30.4317 84.5915,48.3794 133.6116,51.1736 12.7853,0.7288 37.6387,-0.018 45.6684,-1.3731 l 3.6,-0.6073 v 254.0044 254.0044 h 8.6401 8.64 v -251.6 c 0,-138.38 0.3285,-251.456 0.73,-251.28 0.4016,0.176 7.6787,3.9718 16.1714,8.4351 l 15.4412,8.115 0.6049,31.725 c 0.3326,17.4487 1.3274,83.5649 2.2105,146.9249 0.8832,63.36 1.6986,115.3206 1.812,115.4681 0.1134,0.1475 27.7449,-18.3352 61.4033,-41.0727 l 61.1972,-41.3409 3.0147,1.7999 c 1.6581,0.9899 17.6012,11.1726 35.429,22.6283 17.8279,11.4557 33.0303,21.0649 33.7832,21.3538 0.7966,0.3057 14.9316,-8.623 33.8171,-21.3614 17.8465,-12.0376 33.1001,-21.8842 33.8969,-21.8813 0.7967,0 10.7309,5.9803 22.076,13.2831 11.3452,7.3029 21.1732,13.4873 21.84,13.7432 0.972,0.373 1.2125,-19.5546 1.2125,-100.4374 v -100.9027 h 12 12 v -18.6096 -18.6096 l -2.4,-1.5726 c -3.0971,-2.0293 -3.0971,-5.0917 0,-6.5029 2.2653,-1.0321 2.4028,-1.5294 2.4496,-8.8594 0.1431,-22.4012 1.7018,-29.1698 9.107,-39.5473 2.4197,-3.3909 6.3005,-7.5632 8.624,-9.2719 l 4.2246,-3.1067 0.037,-14.2942 c 0.033,-12.5253 -0.1704,-14.4485 -1.6425,-15.5415 -1.3869,-1.0297 -1.4786,-1.5776 -0.5256,-3.1399 0.9491,-1.5558 0.785,-2.6335 -0.9223,-6.0584 -2.8498,-5.7168 -2.867,-15.1527 -0.038,-20.5292 2.7912,-5.3037 9.9162,-11.6515 16.1944,-14.428 3.7323,-1.6506 5.2111,-2.8345 5.2111,-4.172 -10e-5,-1.0271 0.8639,-2.1417 1.9199,-2.4768 1.056,-0.3352 1.92,-1.4152 1.92,-2.4 0,-0.9849 0.8703,-2.0669 1.934,-2.4045 1.0637,-0.3375 1.6873,-1.0128 1.3859,-1.5006 -0.3015,-0.4877 0.5562,-1.3899 1.906,-2.0049 2.3361,-1.0644 2.4542,-1.4897 2.4542,-8.8384 -10e-5,-7.3218 -0.1526,-7.8776 -2.9561,-10.7701 -5.6921,-5.8728 -5.6066,-17.0726 0.1674,-21.9311 2.7305,-2.2976 2.7381,-2.336 3.3553,-17.0266 0.3402,-8.0981 0.9565,-16.2358 1.3695,-18.0838 l 0.751,-3.36 0.096,2.971 c 0.053,1.634 0.5713,9.8314 1.1517,18.2163 0.9151,13.2205 1.2994,15.4163 2.8939,16.5332 6.052,4.239 6.0268,19.6303 -0.038,23.418 -1.7683,1.1044 -1.9908,2.1832 -1.9909,9.6524 0,4.625 0.3876,8.4091 0.8613,8.4091 1.3416,0 6.8188,5.0953 6.8187,6.3433 0,0.6137 1.1139,1.8457 2.4753,2.7377 1.4981,0.9816 2.2619,2.1781 1.9347,3.0308 -0.379,0.9877 0.8086,1.9873 3.9717,3.3432 12.2989,5.2719 20.1226,15.8816 19.2723,26.1351 -0.2351,2.8353 -1.3622,7.0443 -2.5046,9.3533 -1.7858,3.6094 -1.8774,4.3101 -0.6532,4.9951 2.0298,1.136 1.7599,3.3454 -0.4962,4.0615 -1.8132,0.5755 -1.916,1.4199 -1.8485,15.1847 l 0.071,14.5753 4.9686,3.876 c 5.8812,4.5879 11.2261,12.1486 14.2263,20.124 1.8047,4.7974 2.2297,8.1664 2.5432,20.16 l 0.3763,14.4 2.7914,2.2295 c 3.5519,2.8371 3.5297,4.6396 -0.083,6.6951 l -2.8739,1.6354 -0.01,18.48 -0.01,18.48 h 12.4758 12.4757 l 0.2443,103.5772 0.2443,103.5773 c 17.7967,-10.6364 34.4186,-23.3646 52.5932,-33.3703 1.1022,-0.035 65.5514,44.1358 66.8144,44.1358 2.1081,0 8.2141,-5.287 67.028,-42.4344 l 5.9556,-3.7617 c 43.4859,32.721 94.9938,59.446 137.2422,93.3967 0.2995,0.8471 -1.4934,0.9451 -46.9135,-0.4129 v 181.6923 h 54.7201 v -105.6 h 19.1999 l -0,-98.4 -9.5644,-7.2 c -5.2604,-3.96 -9.58,-7.524 -9.5992,-7.92 -0.019,-0.396 10.4935,-0.72 23.3615,-0.72 h 23.3963 l 0.5807,-9.36 c 0.3193,-5.148 1.9366,-53.856 3.5938,-108.24 l 3.0132,-98.88 10.96,-60.48 c 6.0281,-33.264 11.3296,-61.344 11.7811,-62.4 1.0842,-2.5356 0.1072,-7.0523 13.0825,60.48 l 11.0669,57.6 5.2221,106.56 c 2.8721,58.608 5.2322,108.396 5.2445,110.64 l 0.023,4.08 h 17.76 c 9.768,0 17.76,0.2566 17.7601,0.5703 0,0.3137 -2.376,3.8238 -5.28,7.8003 l -5.28,7.23 v 49.3197 l -1e-4,49.3197 h 9.6 9.6001 v 52.8 52.8 h 33.1199 33.12 v -135.84 -135.84 h 20.64 20.6401 v -21.12 -21.12 h 45.5999 45.6 v -29.28 -29.28 h 5.2801 5.2799 v 29.28 29.28 h 45.6 45.6001 v 21.12 21.12 h 21.1199 21.12 v 6.24 c 0,6.0884 0.061,6.24 2.5093,6.24 4.2303,0 9.7863,3.8127 11.8907,8.1598 4.8121,9.9405 -0.5157,21.5454 -10.6342,23.1634 -3.1535,0.5043 -3.7658,0.9724 -3.7658,2.8795 0,1.9285 0.4779,2.2778 3.12,2.2809 9.5302,0.011 16.0689,12.392 11.8619,22.4607 -1.6846,4.0318 -6.7012,7.8935 -11.3819,8.7617 -5.2235,0.9688 -4.9232,3.7328 0.5555,5.1124 7.8958,1.9882 12.1646,7.4504 12.1646,15.5657 0,7.8243 -4.4729,13.5007 -12.1646,15.4375 -5.5679,1.402 -5.7817,4.1529 -0.3897,5.0151 10.5098,1.6806 15.8863,14.4288 10.187,24.154 -2.4954,4.258 -7.1481,7.1693 -11.4578,7.1693 -1.9854,0 -2.495,0.465 -2.495,2.2773 10e-5,1.907 0.6123,2.3752 3.7658,2.8794 10.1185,1.6181 15.4463,13.223 10.6342,23.1634 -2.1044,4.3472 -7.6604,8.1599 -11.8907,8.1599 -2.0365,0 -2.5093,0.4521 -2.5093,2.4 0,1.9478 0.4728,2.4 2.5093,2.4 4.2303,0 9.7863,3.8127 11.8907,8.1598 4.8121,9.9405 -0.5157,21.5454 -10.6342,23.1634 -3.1535,0.5043 -3.7658,0.9724 -3.7658,2.8795 0,1.9116 0.4828,2.2773 3.0067,2.2773 6.8673,0 13.3133,7.4334 13.3134,15.3526 0,8.027 -5.1648,14.4721 -12.7201,15.8734 -5.2235,0.9688 -4.9232,3.7328 0.5555,5.1124 2.2855,0.5755 5.2696,1.9228 6.6314,2.994 2.3824,1.8739 3.7681,1.9476 36.6446,1.9476 h 34.1685 v -83.52 -83.52 h 6.24 6.24 v -4.8 -4.8 h 45.6 45.6001 v -23.04 -23.04 h 2.8799 2.88 v 23.04 23.04 h 10.56 10.56 v -23.04 -23.04 h 2.88 2.88 v 23.04 23.04 h 10.56 10.56 v -23.04 -23.04 h 2.88 2.8801 v 23.04 23.04 h 18.2399 18.2401 v 4.8 4.8 h 6.2399 6.2401 v 12.48 12.48 h 46.56 46.5599 v 5.28 5.28 h 24.96 24.9601 v 519.36 h -1371.3601 -1371.36 z m 1036.8,30.24 v -90.72 l -10.7999,0.01 c -5.94,0 -13.137,0.2889 -15.9932,0.6319 l -5.1932,0.6235 0.6386,47.6081 c 0.3512,26.1845 0.922,66.7242 1.2684,90.0882 l 0.6299,42.48 h 29.4494 z"
         id="path3" />
    </g>
  </g>
</svg>
